<svg width="200" height="40" viewBox="0 0 200 40" fill="none" xmlns="http://www.w3.org/2000/svg">
  <rect width="40" height="40" rx="8" fill="#10B981"/>
  <path d="M12 20L18 26L28 14" stroke="white" stroke-width="4" stroke-linecap="round" stroke-linejoin="round"/>
  <path d="M52 14H58.08L64.48 31.28H64.6L71 14H77.08V34H72.32V18.88H72.22L66.44 34H62.64L56.86 18.86H56.76V34H52V14Z" fill="#333333"/>
  <path d="M85.3381 14H91.0181V29.44H100.298V34H85.3381V14Z" fill="#333333"/>
  <path d="M107.292 14H112.972V34H107.292V14Z" fill="#333333"/>
  <path d="M128.092 34.28C123.132 34.28 119.292 30.8 119.292 24C119.292 17.2 123.132 13.72 128.092 13.72C133.052 13.72 136.892 17.2 136.892 24C136.892 30.8 133.052 34.28 128.092 34.28ZM128.092 29.72C130.332 29.72 131.212 27.32 131.212 24C131.212 20.68 130.332 18.28 128.092 18.28C125.852 18.28 124.972 20.68 124.972 24C124.972 27.32 125.852 29.72 128.092 29.72Z" fill="#333333"/>
  <path d="M144.935 14H150.615V29.44H159.895V34H144.935V14Z" fill="#333333"/>
  <path d="M166.889 14H172.569V18.56H166.889V14ZM166.889 20.6H172.569V34H166.889V20.6Z" fill="#333333"/>
  <path d="M180.482 20.6H186.162V34H180.482V20.6ZM180.482 14H186.162V18.56H180.482V14Z" fill="#10B981"/>
</svg> 